name Walk7.mot
datacolumns 19
datarows 22
range 1.16100000 1.18200000
endheader

                time	   L_ground_force_vx	   L_ground_force_vy	   L_ground_force_vz	   L_ground_force_px	   L_ground_force_py	   L_ground_force_pz	   R_ground_force_vx	   R_ground_force_vy	   R_ground_force_vz	   R_ground_force_px	   R_ground_force_py	   R_ground_force_pz	   L_ground_torque_x	   L_ground_torque_y	   L_ground_torque_z	   R_ground_torque_x	   R_ground_torque_y	   R_ground_torque_z	
          1.16100000	          0.00000000	          0.00000000	          0.00000000	          0.00000000	          0.00000000	          0.00000000	         45.41835597	        537.27909806	         26.32045334	         -0.22173141	          0.00000000	         -0.03624758	          0.00000000	          0.00000000	          0.00000000	          0.00000000	          0.02948099	          0.00000000	
          1.16200000	          0.00000000	          0.00000000	          0.00000000	          0.00000000	          0.00000000	          0.00000000	         46.08388980	        539.75078993	         26.33626200	         -0.22168905	          0.00000000	         -0.03627288	          0.00000000	          0.00000000	          0.00000000	          0.00000000	          0.05949605	          0.00000000	
          1.16300000	          0.00000000	          0.00000000	          0.00000000	          0.00000000	          0.00000000	          0.00000000	         46.71730521	        542.17393454	         26.41840840	         -0.22167170	          0.00000000	         -0.03630067	          0.00000000	          0.00000000	          0.00000000	          0.00000000	          0.08982784	          0.00000000	
          1.16400000	          0.00000000	          0.00000000	          0.00000000	          0.00000000	          0.00000000	          0.00000000	         47.33274069	        544.51987378	         26.59773189	         -0.22164298	          0.00000000	         -0.03630233	          0.00000000	          0.00000000	          0.00000000	          0.00000000	          0.11437384	          0.00000000	
          1.16500000	          0.00000000	          0.00000000	          0.00000000	          0.00000000	          0.00000000	          0.00000000	         47.97678266	        546.79246988	         26.88065138	         -0.22156846	          0.00000000	         -0.03625118	          0.00000000	          0.00000000	          0.00000000	          0.00000000	          0.12248549	          0.00000000	
          1.16600000	          0.00000000	          0.00000000	          0.00000000	          0.00000000	          0.00000000	          0.00000000	         48.70512736	        549.01316029	         27.22773758	         -0.22142599	          0.00000000	         -0.03614332	          0.00000000	          0.00000000	          0.00000000	          0.00000000	          0.10757517	          0.00000000	
          1.16700000	          0.00000000	          0.00000000	          0.00000000	          0.00000000	          0.00000000	          0.00000000	         49.52936629	        551.21391287	         27.56918859	         -0.22121957	          0.00000000	         -0.03600785	          0.00000000	          0.00000000	          0.00000000	          0.00000000	          0.07628386	          0.00000000	
          1.16800000	          0.00000000	          0.00000000	          0.00000000	          0.00000000	          0.00000000	          0.00000000	         50.40538186	        553.41661892	         27.83812968	         -0.22098705	          0.00000000	         -0.03589766	          0.00000000	          0.00000000	          0.00000000	          0.00000000	          0.04432705	          0.00000000	
          1.16900000	          0.00000000	          0.00000000	          0.00000000	          0.00000000	          0.00000000	          0.00000000	         51.26414567	        555.63344606	         27.99971491	         -0.22078332	          0.00000000	         -0.03585881	          0.00000000	          0.00000000	          0.00000000	          0.00000000	          0.02700176	          0.00000000	
          1.17000000	          0.00000000	          0.00000000	          0.00000000	          0.00000000	          0.00000000	          0.00000000	         52.04963586	        557.89123450	         28.07270038	         -0.22064808	          0.00000000	         -0.03590481	          0.00000000	          0.00000000	          0.00000000	          0.00000000	          0.03076546	          0.00000000	
          1.17100000	          0.00000000	          0.00000000	          0.00000000	          0.00000000	          0.00000000	          0.00000000	         52.74867643	        560.20418098	         28.11768156	         -0.22058488	          0.00000000	         -0.03600611	          0.00000000	          0.00000000	          0.00000000	          0.00000000	          0.04758870	          0.00000000	
          1.17200000	          0.00000000	          0.00000000	          0.00000000	          0.00000000	          0.00000000	          0.00000000	         53.39410629	        562.52734020	         28.18613605	         -0.22056529	          0.00000000	         -0.03611137	          0.00000000	          0.00000000	          0.00000000	          0.00000000	          0.06247388	          0.00000000	
          1.17300000	          0.00000000	          0.00000000	          0.00000000	          0.00000000	          0.00000000	          0.00000000	         54.03425523	        564.78840008	         28.29225298	         -0.22055257	          0.00000000	         -0.03618827	          0.00000000	          0.00000000	          0.00000000	          0.00000000	          0.06837666	          0.00000000	
          1.17400000	          0.00000000	          0.00000000	          0.00000000	          0.00000000	          0.00000000	          0.00000000	         54.70688210	        566.95492828	         28.43952692	         -0.22052639	          0.00000000	         -0.03623037	          0.00000000	          0.00000000	          0.00000000	          0.00000000	          0.06507197	          0.00000000	
          1.17500000	          0.00000000	          0.00000000	          0.00000000	          0.00000000	          0.00000000	          0.00000000	         55.44489785	        569.03672473	         28.63716742	         -0.22047746	          0.00000000	         -0.03623580	          0.00000000	          0.00000000	          0.00000000	          0.00000000	          0.04700955	          0.00000000	
          1.17600000	          0.00000000	          0.00000000	          0.00000000	          0.00000000	          0.00000000	          0.00000000	         56.27406798	        571.05667834	         28.86703380	         -0.22038398	          0.00000000	         -0.03620234	          0.00000000	          0.00000000	          0.00000000	          0.00000000	          0.00604273	          0.00000000	
          1.17700000	          0.00000000	          0.00000000	          0.00000000	          0.00000000	          0.00000000	          0.00000000	         57.18349204	        573.05371480	         29.07100975	         -0.22022276	          0.00000000	         -0.03613567	          0.00000000	          0.00000000	          0.00000000	          0.00000000	         -0.05474872	          0.00000000	
          1.17800000	          0.00000000	          0.00000000	          0.00000000	          0.00000000	          0.00000000	          0.00000000	         58.11905499	        575.09000819	         29.19766661	         -0.22000251	          0.00000000	         -0.03605178	          0.00000000	          0.00000000	          0.00000000	          0.00000000	         -0.11755636	          0.00000000	
          1.17900000	          0.00000000	          0.00000000	          0.00000000	          0.00000000	          0.00000000	          0.00000000	         59.01595091	        577.22880937	         29.24079307	         -0.21976125	          0.00000000	         -0.03597039	          0.00000000	          0.00000000	          0.00000000	          0.00000000	         -0.15827936	          0.00000000	
          1.18000000	          0.00000000	          0.00000000	          0.00000000	          0.00000000	          0.00000000	          0.00000000	         59.83297978	        579.48956810	         29.23195779	         -0.21953624	          0.00000000	         -0.03590619	          0.00000000	          0.00000000	          0.00000000	          0.00000000	         -0.15914998	          0.00000000	
          1.18100000	          0.00000000	          0.00000000	          0.00000000	          0.00000000	          0.00000000	          0.00000000	         60.56846125	        581.81585562	         29.21621567	         -0.21935232	          0.00000000	         -0.03586527	          0.00000000	          0.00000000	          0.00000000	          0.00000000	         -0.12190226	          0.00000000	
          1.18200000	          0.00000000	          0.00000000	          0.00000000	          0.00000000	          0.00000000	          0.00000000	         61.25637414	        584.10515914	         29.22861279	         -0.21922332	          0.00000000	         -0.03584529	          0.00000000	          0.00000000	          0.00000000	          0.00000000	         -0.06906202	          0.00000000	
